<svg width="35" height="33" viewBox="0 0 35 33" fill="none" xmlns="http://www.w3.org/2000/svg">
<g clip-path="url(#clip0_1_360)">
<path d="M12.5081 22.7862C13.0682 23.0097 13.6177 22.4627 13.432 21.8807C12.1577 17.8857 7.5441 16.3954 3.25517 19.9398C0.999156 21.8044 0.151388 22.2006 0.130005 22.2106C1.61728 23.7234 3.3164 28.8002 7.02451 29.3616C11.1093 30.1151 14.7245 26.0264 11.7667 24.1554C9.8215 22.9251 7.5312 22.2104 5.07622 22.2104C7.64994 21.6202 10.2193 21.8733 12.5081 22.7862Z" fill="#014751"/>
<path d="M31.005 19.9396C23.6016 13.8214 18.8801 23.47 21.8149 22.5135C23.8994 21.8343 26.1781 21.6863 28.4639 22.2105C24.5911 22.2105 21.0211 24.0162 18.6409 26.9553C18.8364 22.3364 19.132 19.4452 19.4748 17.2945C21.4531 17.2254 24.0898 15.6 25.5378 12.756C28.0341 8.21088 26.8764 3.55062 26.5039 0.609985C24.5534 2.54244 16.0328 0.278113 12.655 6.16695C11.1629 8.76828 11.5966 11.9338 13.1662 14.2503C13.6631 14.9836 14.8511 14.6317 14.885 13.7418C15.0324 9.87037 16.9262 6.94542 20.4568 5.32538C18.8725 7.41377 17.8323 9.75187 17.2949 12.1685C16.4596 15.933 15.5872 18.4024 15.2668 30.401C15.2343 31.6179 16.2032 32.6251 17.3996 32.6098C18.2657 32.5987 19.0076 32.0396 19.3407 31.2261C19.8473 29.9889 20.6718 28.7084 22.0135 27.5353C23.2885 28.9691 25.2287 29.732 27.2362 29.3616C30.9285 28.8026 32.6517 23.7148 34.1306 22.2103C34.109 22.2006 33.2611 21.8044 31.005 19.9396Z" fill="#014751"/>
</g>
<defs>
<clipPath id="clip0_1_360">
<rect width="34" height="32" fill="white" transform="translate(0.130005 0.609985)"/>
</clipPath>
</defs>
</svg>
